<svg xmlns="http://www.w3.org/2000/svg" version="1.1" xmlns:xlink="http://www.w3.org/1999/xlink" xmlns:svgjs="http://svgjs.dev/svgjs" width="1500" height="344" viewBox="0 0 1500 344"><g transform="matrix(1,0,0,1,-0.9090909090909918,-0.7167079250701818)"><svg viewBox="0 0 396 91" data-background-color="#ffffff" preserveAspectRatio="xMidYMid meet" height="344" width="1500" xmlns="http://www.w3.org/2000/svg" xmlns:xlink="http://www.w3.org/1999/xlink"><g id="tight-bounds" transform="matrix(1,0,0,1,0.2400000000000091,0.18959424762030608)"><svg viewBox="0 0 395.52 90.62081150475939" height="90.62081150475939" width="395.52"><g><svg viewBox="0 0 608.5892028363176 139.43883352058484" height="90.62081150475939" width="395.52"><g transform="matrix(1,0,0,1,213.06920283631757,19.27121360523278)"><svg viewBox="0 0 395.52 100.89640631011927" height="100.89640631011927" width="395.52"><g id="textblocktransform"><svg viewBox="0 0 395.52 100.89640631011927" height="100.89640631011927" width="395.52" id="textblock"><g><svg viewBox="0 0 395.52 100.89640631011927" height="100.89640631011927" width="395.52"><g transform="matrix(1,0,0,1,0,0)"><svg width="395.52" viewBox="1.42 -36.86 184.57000000000002 47.09" height="100.89640631011927" data-palette-color="#ffffff"><path d="M31.39-25L21.95-25Q21.8-26.78 20.62-27.77 19.44-28.76 17.05-28.76L17.05-28.76Q15.52-28.76 14.55-28.4 13.58-28.04 13.12-27.41 12.66-26.79 12.64-25.99L12.64-25.99Q12.61-25.34 12.88-24.81 13.16-24.29 13.76-23.87 14.36-23.46 15.31-23.12 16.25-22.78 17.54-22.51L17.54-22.51 20.53-21.88Q23.54-21.24 25.69-20.19 27.84-19.14 29.21-17.73 30.58-16.32 31.22-14.56 31.87-12.8 31.89-10.72L31.89-10.72Q31.87-7.14 30.1-4.65 28.32-2.17 25.03-0.87 21.73 0.43 17.12 0.43L17.12 0.43Q12.38 0.43 8.85-0.98 5.33-2.38 3.38-5.3 1.44-8.22 1.42-12.78L1.42-12.78 10.8-12.78Q10.88-11.12 11.63-9.98 12.38-8.84 13.73-8.26 15.09-7.67 16.97-7.67L16.97-7.67Q18.55-7.67 19.62-8.06 20.69-8.45 21.24-9.14 21.79-9.84 21.8-10.72L21.8-10.72Q21.79-11.56 21.26-12.19 20.74-12.82 19.55-13.33 18.36-13.83 16.34-14.28L16.34-14.28 12.71-15.06Q7.88-16.1 5.1-18.56 2.33-21.02 2.34-25.28L2.34-25.28Q2.33-28.75 4.2-31.35 6.07-33.95 9.4-35.4 12.73-36.86 17.05-36.86L17.05-36.86Q21.45-36.86 24.66-35.39 27.88-33.91 29.63-31.24 31.37-28.57 31.39-25L31.39-25ZM45.59-15.34L45.59-15.34 45.59 0 35.79 0 35.79-27.27 45.1-27.27 45.1-22.09 45.38-22.09Q46.27-24.68 48.51-26.15 50.76-27.63 53.76-27.63L53.76-27.63Q56.66-27.63 58.8-26.31 60.94-24.98 62.12-22.67 63.3-20.37 63.28-17.4L63.28-17.4 63.28 0 53.48 0 53.48-15.34Q53.5-17.37 52.46-18.52 51.42-19.67 49.57-19.67L49.57-19.67Q48.36-19.67 47.47-19.15 46.57-18.63 46.09-17.66 45.61-16.69 45.59-15.34ZM75.71 0.43L75.71 0.43Q73.1 0.43 71.1-0.44 69.1-1.3 67.96-3.05 66.83-4.81 66.83-7.53L66.83-7.53Q66.83-9.77 67.59-11.35 68.35-12.94 69.72-13.96 71.09-14.97 72.91-15.5 74.73-16.03 76.84-16.19L76.84-16.19Q79.13-16.37 80.53-16.63 81.92-16.89 82.54-17.36 83.16-17.83 83.16-18.61L83.16-18.61 83.16-18.68Q83.16-19.74 82.35-20.31 81.53-20.88 80.25-20.88L80.25-20.88Q78.85-20.88 77.97-20.27 77.09-19.66 76.91-18.39L76.91-18.39 67.89-18.39Q68.07-20.88 69.48-22.98 70.89-25.09 73.61-26.36 76.33-27.63 80.39-27.63L80.39-27.63Q83.32-27.63 85.65-26.94 87.97-26.26 89.61-25.04 91.24-23.83 92.1-22.2 92.96-20.58 92.96-18.68L92.96-18.68 92.96 0 83.8 0 83.8-3.84 83.59-3.84Q82.77-2.31 81.61-1.37 80.45-0.43 78.96 0 77.48 0.43 75.71 0.43ZM78.9-5.75L78.9-5.75Q80.02-5.75 81.01-6.21 81.99-6.68 82.61-7.55 83.23-8.42 83.23-9.66L83.23-9.66 83.23-11.93Q82.84-11.77 82.41-11.63 81.97-11.49 81.48-11.36 81-11.24 80.45-11.13 79.91-11.03 79.33-10.94L79.33-10.94Q78.19-10.76 77.47-10.36 76.75-9.96 76.41-9.38 76.06-8.81 76.06-8.1L76.06-8.1Q76.06-6.96 76.86-6.36 77.66-5.75 78.9-5.75ZM107.45 10.23L97.65 10.23 97.65-27.27 107.38-27.27 107.38-22.51 107.59-22.51Q108.12-23.9 109.15-25.06 110.18-26.23 111.71-26.93 113.24-27.63 115.26-27.63L115.26-27.63Q117.96-27.63 120.4-26.19 122.84-24.75 124.38-21.66 125.92-18.57 125.92-13.64L125.92-13.64Q125.92-8.91 124.45-5.81 122.99-2.7 120.54-1.17 118.1 0.36 115.19 0.36L115.19 0.36Q113.27 0.36 111.77-0.28 110.27-0.91 109.22-2 108.16-3.09 107.59-4.47L107.59-4.47 107.45-4.47 107.45 10.23ZM107.24-13.64L107.24-13.64Q107.24-11.65 107.76-10.2 108.28-8.75 109.25-7.96 110.22-7.17 111.57-7.17L111.57-7.17Q112.92-7.17 113.87-7.95 114.82-8.72 115.32-10.17 115.83-11.61 115.83-13.64L115.83-13.64Q115.83-15.66 115.32-17.11 114.82-18.55 113.87-19.33 112.92-20.1 111.57-20.1L111.57-20.1Q110.22-20.1 109.25-19.33 108.28-18.55 107.76-17.11 107.24-15.66 107.24-13.64ZM127.55 0L152.19 0 152.19 6.96 127.55 6.96 127.55 0ZM154.53-36.36L164.41-36.36 164.41 0 154.53 0 154.53-36.36ZM167.53-27.27L185.5-27.27 185.5-20.17 167.53-20.17 167.53-27.27ZM171.01-7.85L171.01-33.81 180.81-33.81 180.81-8.77Q180.81-8.2 181-7.82 181.2-7.44 181.61-7.25 182.02-7.07 182.66-7.07L182.66-7.07Q183.1-7.07 183.69-7.17 184.29-7.28 184.57-7.35L184.57-7.35 185.99-0.46Q185.34-0.27 184.12 0.02 182.9 0.3 181.24 0.39L181.24 0.39Q177.86 0.57 175.57-0.31 173.28-1.19 172.13-3.09 170.97-4.99 171.01-7.85L171.01-7.85Z" opacity="1" transform="matrix(1,0,0,1,0,0)" fill="#ffffff" class="wordmark-text-0" data-fill-palette-color="primary" id="text-0"></path></svg></g></svg></g></svg></g></svg></g><g><svg viewBox="0 0 189.24998282024984 139.43883352058484" height="139.43883352058484" width="189.24998282024984"><g><svg xmlns="http://www.w3.org/2000/svg" xmlns:xlink="http://www.w3.org/1999/xlink" version="1.1" x="0" y="0" viewBox="5 2.1329999999999996 89.99900023504551 66.311" enable-background="new 0 0 100 71.938" xml:space="preserve" height="139.43883352058484" width="189.24998282024984" class="icon-icon-0" data-fill-palette-color="accent" id="icon-0"><g fill="#5d5fef" data-fill-palette-color="accent"><path fill="#5d5fef" d="M85.591 18.414H68.595c-0.148 0-0.234 0.052-0.246 0.065l0.045 6.674c0.021-0.035 0.097-0.007 0.205-0.007h16.997c0.15 0 0.236-0.053 0.247-0.065l-0.048-6.675C85.773 18.445 85.698 18.415 85.591 18.414z" data-fill-palette-color="accent"></path></g><g fill="#5d5fef" data-fill-palette-color="accent"><path fill="#5d5fef" d="M50 30.117c-5.546 0-10.061 4.514-10.061 10.06 0 5.548 4.515 10.06 10.061 10.06 5.547 0 10.061-4.512 10.061-10.06C60.061 34.631 55.546 30.117 50 30.117z" data-fill-palette-color="accent"></path></g><g fill="#5d5fef" data-fill-palette-color="accent"><path fill="#5d5fef" d="M87.889 8.963H45.121c0-0.012 0.002-0.02 0.002-0.032v-3.68c0-1.721-1.168-3.118-2.613-3.118H22.829c-1.443 0-2.611 1.396-2.611 3.118v3.68c0 0.011 0.002 0.02 0.002 0.032h-8.106C8.191 8.963 5 12.228 5 16.242v44.923c0 4.012 3.19 7.279 7.113 7.279h75.775c3.921 0 7.111-3.268 7.111-7.279V16.242C95 12.228 91.81 8.963 87.889 8.963zM22.829 64.282H12.111c-1.63 0-2.95-1.397-2.95-3.117V16.242c0-1.721 1.32-3.118 2.95-3.118h10.716c-1.444 0-2.611 1.396-2.611 3.118v44.923C20.217 62.885 21.385 64.282 22.829 64.282zM28.715 24.445c-1.534 0-2.775-1.242-2.775-2.775 0-1.532 1.244-2.776 2.775-2.776 1.531 0 2.776 1.244 2.776 2.776C31.491 23.2 30.245 24.445 28.715 24.445zM50 54.396c-7.842 0-14.221-6.381-14.221-14.221 0-7.842 6.379-14.224 14.221-14.224s14.221 6.38 14.221 14.224C64.221 48.017 57.842 54.396 50 54.396zM87.353 25.227c0 0.83-0.773 1.48-1.762 1.48H68.595c-0.988 0-1.762-0.65-1.762-1.48v-6.895c0-0.829 0.773-1.479 1.762-1.479h16.996c0.989 0 1.763 0.65 1.763 1.479L87.353 25.227 87.353 25.227z" data-fill-palette-color="accent"></path></g></svg></g></svg></g></svg></g><defs></defs></svg><rect width="395.52" height="90.62081150475939" fill="none" stroke="none" visibility="hidden"></rect></g></svg></g></svg>